<svg width="180" height="33" viewBox="0 0 180 33" fill="none" xmlns="http://www.w3.org/2000/svg">
<path d="M12.6845 9.87617H7.73931V8.13006C7.73931 6.64036 8.10743 5.6148 8.82592 5.0755C9.80165 4.35053 11.4426 4.37706 12.6313 4.54062V0.0670755C10.7685 -0.118586 8.19613 0.00960648 6.18257 1.50816C4.85203 2.48067 3.29087 4.41684 3.29087 8.1389V9.885H0V13.9784H3.29087V31.6869H7.72601V13.9695H12.6712L12.6845 9.87617Z" fill="#727171"/>
<path d="M94.1091 9.08418H89.6563V31.4961H94.1091V9.08418Z" fill="#727171"/>
<path d="M72.0488 8.71284C70.7536 8.71307 69.4738 8.99249 68.2972 9.53194C67.1206 10.0714 66.0749 10.8581 65.2319 11.8381C63.8073 10.1822 61.8247 9.10201 59.657 8.80081C57.4893 8.4996 55.2859 8.99809 53.4611 10.2025V9.08858H49.3542V31.3325H49.4029V31.5447H53.8381V17.7174C53.8381 16.5134 54.318 15.3586 55.1722 14.5072C56.0264 13.6558 57.1849 13.1775 58.393 13.1775C59.601 13.1775 60.7596 13.6558 61.6138 14.5072C62.468 15.3586 62.9479 16.5134 62.9479 17.7174V31.5536H67.4939V17.7174C67.4748 17.109 67.5786 16.503 67.7991 15.9353C68.0195 15.3677 68.3521 14.85 68.7772 14.4129C69.2022 13.9758 69.711 13.6283 70.2734 13.391C70.8358 13.1537 71.4403 13.0314 72.051 13.0314C72.6617 13.0314 73.2662 13.1537 73.8285 13.391C74.3909 13.6283 74.8997 13.9758 75.3248 14.4129C75.7498 14.85 76.0824 15.3677 76.3029 15.9353C76.5233 16.503 76.6271 17.109 76.6081 17.7174V31.5536H81.0432V17.7174C81.0444 15.3358 80.0984 13.0507 78.4125 11.363C76.7266 9.67516 74.4383 8.7222 72.0488 8.71284Z" fill="#727171"/>
<path d="M141.268 8.56254H140.345C137.697 8.56488 135.157 9.61432 133.284 11.4806C131.411 13.3469 130.357 15.8776 130.353 18.5175V31.5978H134.788V18.5175C134.791 17.0539 135.375 15.6509 136.413 14.616C137.452 13.5811 138.859 12.9986 140.328 12.9963H141.25C142.718 12.9986 144.125 13.5812 145.163 14.6163C146.201 15.6513 146.784 17.0543 146.785 18.5175V31.5978H151.22V18.5175C151.218 15.8841 150.17 13.3587 148.305 11.4933C146.44 9.62792 143.91 8.57423 141.268 8.56254Z" fill="#727171"/>
<path d="M37.0821 9.00458V11.6569C35.3998 10.1204 33.3053 9.10503 31.0541 8.73455C28.8028 8.36406 26.492 8.65449 24.4035 9.57042C22.3149 10.4863 20.5389 11.9882 19.292 13.8928C18.0451 15.7974 17.3812 18.0225 17.3812 20.2967C17.3812 22.571 18.0451 24.7961 19.292 26.7007C20.5389 28.6053 22.3149 30.1072 24.4035 31.0231C26.492 31.939 28.8028 32.2294 31.0541 31.859C33.3053 31.4885 35.3998 30.4731 37.0821 28.9366V31.4872H41.1935V9.00458H37.0821ZM29.1521 27.5707C27.7073 27.5707 26.2951 27.1437 25.0938 26.3437C23.8926 25.5437 22.9563 24.4066 22.4034 23.0763C21.8506 21.7459 21.7059 20.282 21.9878 18.8698C22.2696 17.4575 22.9653 16.1602 23.9869 15.142C25.0085 14.1238 26.31 13.4304 27.727 13.1494C29.144 12.8685 30.6127 13.0127 31.9474 13.5637C33.2822 14.1148 34.423 15.048 35.2257 16.2453C36.0283 17.4425 36.4567 18.8502 36.4567 20.2901C36.4532 22.2192 35.6822 24.068 34.3128 25.4312C32.9434 26.7945 31.0875 27.5607 29.1521 27.5618V27.5707Z" fill="#727171"/>
<path d="M112.981 32C110.655 32.0009 108.381 31.3143 106.447 30.0272C104.513 28.7401 103.006 26.9102 102.115 24.7689C101.224 22.6277 100.991 20.2713 101.444 17.9978C101.897 15.7243 103.017 13.6358 104.661 11.9964C106.305 10.3571 108.4 9.24056 110.681 8.78803C112.962 8.3355 115.326 8.56732 117.475 9.45415C119.623 10.341 121.46 11.843 122.752 13.7702C124.044 15.6975 124.734 17.9633 124.734 20.2813C124.73 23.3874 123.491 26.3654 121.288 28.5623C119.084 30.7591 116.097 31.9953 112.981 32ZM112.981 12.9919C111.536 12.9919 110.123 13.419 108.922 14.2192C107.721 15.0194 106.784 16.1567 106.232 17.4873C105.679 18.8179 105.534 20.282 105.817 21.6944C106.099 23.1069 106.795 24.4041 107.817 25.4221C108.839 26.4402 110.141 27.1332 111.558 27.4137C112.976 27.6941 114.444 27.5493 115.779 26.9975C117.114 26.4458 118.254 25.512 119.056 24.3141C119.859 23.1162 120.286 21.7082 120.285 20.268C120.278 18.3409 119.506 16.4949 118.137 15.1339C116.768 13.7728 114.914 13.0075 112.981 13.0051V12.9919Z" fill="#727171"/>
<path d="M94.77 3.9387C94.7708 3.36829 94.6019 2.81045 94.2845 2.3358C93.9671 1.86115 93.5155 1.49106 92.9869 1.27237C92.4583 1.05368 91.8766 0.996227 91.3152 1.10729C90.7539 1.21836 90.2382 1.49296 89.8335 1.8963C89.4288 2.29965 89.1534 2.8136 89.0419 3.3731C88.9305 3.93259 88.9881 4.51247 89.2075 5.0393C89.4269 5.56612 89.7983 6.01621 90.2745 6.33257C90.7507 6.64893 91.3104 6.81733 91.8827 6.81645C92.6484 6.81645 93.3828 6.51326 93.9243 5.97358C94.4658 5.4339 94.77 4.70193 94.77 3.9387Z" fill="#727171"/>
<path d="M180 20.2592V20.2282C179.999 19.6227 179.95 19.0181 179.854 18.4202V18.3495C179.39 15.6033 177.954 13.1138 175.805 11.3333C173.657 9.55284 170.939 8.59944 168.145 8.64632C165.352 8.6932 162.668 9.73724 160.581 11.5888C158.494 13.4404 157.142 15.9766 156.772 18.7368C156.401 21.4971 157.036 24.2982 158.562 26.6313C160.087 28.9645 162.402 30.675 165.085 31.4521C167.768 32.2291 170.641 32.0212 173.184 30.8661C175.726 29.711 177.769 27.6854 178.94 25.1571H173.857C172.99 26.1385 171.876 26.8717 170.63 27.2811C169.384 27.6905 168.052 27.7612 166.769 27.486C165.486 27.2108 164.301 26.5996 163.334 25.7154C162.368 24.8313 161.655 23.7062 161.27 22.4562L161.235 22.3456H179.809C179.836 22.1821 179.902 21.7577 179.947 21.2449V21.1654C179.947 20.9709 179.956 20.7631 179.973 20.5421C179.973 20.4802 179.973 20.4227 179.973 20.3564V20.2592H180ZM161.186 18.4202L161.217 18.3142C161.645 16.7617 162.573 15.3923 163.858 14.4163C165.143 13.4403 166.713 12.9117 168.329 12.9117C169.944 12.9117 171.515 13.4403 172.8 14.4163C174.085 15.3923 175.012 16.7617 175.441 18.3142L175.472 18.4202H161.186Z" fill="#727171"/>
</svg>
