<svg width="180" height="32" viewBox="0 0 180 32" fill="none" xmlns="http://www.w3.org/2000/svg">
<g clip-path="url(#clip0_559:22078)">
<path d="M12.6845 9.87611H7.73931V8.13C7.73931 6.64029 8.10743 5.61474 8.82592 5.07544C9.80165 4.35047 11.4426 4.377 12.6313 4.54056V0.0670144C10.7685 -0.118647 8.19613 0.00954539 6.18257 1.5081C4.85203 2.48061 3.29087 4.41678 3.29087 8.13884V9.88494H0V13.9783H3.29087V31.6869H7.72601V13.9695H12.6712L12.6845 9.87611Z" fill="#ED6C00"/>
<path d="M94.1091 9.08417H89.6562V31.4961H94.1091V9.08417Z" fill="#ED6C00"/>
<path d="M72.0488 8.71283C70.7537 8.71306 69.4739 8.99248 68.2973 9.53193C67.1206 10.0714 66.075 10.8581 65.232 11.8381C63.8073 10.1822 61.8247 9.102 59.6571 8.8008C57.4894 8.4996 55.286 8.99808 53.4612 10.2025V9.08857H49.3542V31.3325H49.403V31.5447H53.8382V17.7174C53.8382 16.5133 54.3181 15.3586 55.1723 14.5072C56.0265 13.6558 57.185 13.1775 58.3931 13.1775C59.6011 13.1775 60.7596 13.6558 61.6138 14.5072C62.468 15.3586 62.9479 16.5133 62.9479 17.7174V31.5535H67.4939V17.7174C67.4749 17.109 67.5787 16.503 67.7991 15.9353C68.0196 15.3677 68.3522 14.85 68.7772 14.4129C69.2023 13.9758 69.7111 13.6283 70.2735 13.391C70.8359 13.1537 71.4403 13.0314 72.0511 13.0314C72.6618 13.0314 73.2662 13.1537 73.8286 13.391C74.391 13.6283 74.8998 13.9758 75.3249 14.4129C75.7499 14.85 76.0825 15.3677 76.303 15.9353C76.5234 16.503 76.6272 17.109 76.6081 17.7174V31.5535H81.0433V17.7174C81.0445 15.3358 80.0985 13.0507 78.4126 11.3629C76.7267 9.67515 74.4383 8.72219 72.0488 8.71283Z" fill="#ED6C00"/>
<path d="M141.268 8.5625H140.345C137.697 8.56484 135.157 9.61427 133.284 11.4806C131.411 13.3468 130.357 15.8776 130.353 18.5175V31.5977H134.788V18.5175C134.791 17.0539 135.375 15.6509 136.413 14.616C137.452 13.581 138.859 12.9986 140.328 12.9963H141.25C142.718 12.9986 144.125 13.5812 145.163 14.6162C146.201 15.6513 146.784 17.0543 146.785 18.5175V31.5977H151.22V18.5175C151.218 15.8841 150.17 13.3587 148.305 11.4933C146.44 9.62788 143.91 8.57418 141.268 8.5625Z" fill="#727171"/>
<path d="M37.082 9.00453V11.6568C35.3998 10.1204 33.3053 9.10497 31.054 8.73449C28.8027 8.36401 26.4919 8.65444 24.4034 9.57036C22.3149 10.4863 20.5389 11.9881 19.292 13.8927C18.045 15.7974 17.3811 18.0225 17.3811 20.2967C17.3811 22.5709 18.045 24.796 19.292 26.7006C20.5389 28.6053 22.3149 30.1071 24.4034 31.023C26.4919 31.9389 28.8027 32.2294 31.054 31.8589C33.3053 31.4884 35.3998 30.473 37.082 28.9366V31.4872H41.1934V9.00453H37.082ZM29.152 27.5706C27.7073 27.5706 26.295 27.1436 25.0938 26.3436C23.8925 25.5436 22.9563 24.4066 22.4034 23.0762C21.8505 21.7459 21.7058 20.282 21.9877 18.8697C22.2696 17.4574 22.9653 16.1601 23.9868 15.1419C25.0084 14.1237 26.31 13.4303 27.7269 13.1494C29.1439 12.8685 30.6126 13.0126 31.9474 13.5637C33.2821 14.1147 34.423 15.0479 35.2256 16.2452C36.0283 17.4425 36.4567 18.8501 36.4567 20.2901C36.4532 22.2191 35.6822 24.068 34.3128 25.4312C32.9434 26.7944 31.0874 27.5606 29.152 27.5618V27.5706Z" fill="#ED6C00"/>
<path d="M112.981 32C110.655 32.0009 108.381 31.3143 106.447 30.0272C104.513 28.74 103.006 26.9101 102.115 24.7689C101.224 22.6276 100.991 20.2712 101.444 17.9977C101.897 15.7242 103.017 13.6357 104.661 11.9964C106.305 10.3571 108.4 9.24053 110.681 8.788C112.962 8.33547 115.326 8.56729 117.475 9.45412C119.623 10.341 121.46 11.843 122.752 13.7702C124.044 15.6974 124.734 17.9633 124.734 20.2812C124.73 23.3874 123.491 26.3654 121.288 28.5622C119.085 30.759 116.097 31.9953 112.981 32ZM112.981 12.9918C111.536 12.9918 110.123 13.419 108.922 14.2192C107.721 15.0193 106.784 16.1567 106.232 17.4873C105.679 18.8179 105.535 20.282 105.817 21.6944C106.099 23.1068 106.795 24.4041 107.817 25.4221C108.839 26.4401 110.141 27.1332 111.558 27.4136C112.976 27.694 114.445 27.5492 115.779 26.9975C117.114 26.4458 118.254 25.5119 119.057 24.3141C119.859 23.1162 120.286 21.7081 120.285 20.268C120.278 18.3408 119.506 16.4949 118.137 15.1339C116.768 13.7728 114.914 13.0074 112.981 13.0051V12.9918Z" fill="#727171"/>
<path d="M94.77 3.9387C94.7708 3.36829 94.6019 2.81044 94.2845 2.3358C93.9671 1.86115 93.5155 1.49106 92.9869 1.27236C92.4583 1.05367 91.8766 0.996222 91.3152 1.10729C90.7539 1.21836 90.2382 1.49295 89.8335 1.8963C89.4288 2.29964 89.1534 2.8136 89.0419 3.37309C88.9305 3.93259 88.9881 4.51246 89.2075 5.03929C89.427 5.56612 89.7983 6.01621 90.2745 6.33257C90.7507 6.64893 91.3104 6.81732 91.8827 6.81645C92.6484 6.81645 93.3828 6.51326 93.9243 5.97358C94.4658 5.43389 94.77 4.70193 94.77 3.9387Z" fill="#ED6C00"/>
<path d="M180 20.2592V20.2282C179.999 19.6226 179.95 19.0181 179.854 18.4202V18.3495C179.39 15.6033 177.954 13.1138 175.805 11.3333C173.657 9.55283 170.939 8.59943 168.145 8.6463C165.352 8.69318 162.668 9.73722 160.581 11.5888C158.494 13.4403 157.142 15.9766 156.772 18.7368C156.401 21.497 157.036 24.2982 158.562 26.6313C160.087 28.9645 162.402 30.675 165.085 31.452C167.768 32.2291 170.641 32.0212 173.184 30.8661C175.726 29.711 177.769 27.6853 178.94 25.1571H173.857C172.99 26.1385 171.876 26.8717 170.63 27.2811C169.385 27.6904 168.052 27.7612 166.769 27.486C165.486 27.2107 164.301 26.5996 163.334 25.7154C162.368 24.8313 161.655 23.7062 161.27 22.4561L161.235 22.3456H179.809C179.836 22.1821 179.902 21.7577 179.947 21.2449V21.1653C179.947 20.9708 179.956 20.7631 179.973 20.5421C179.973 20.4802 179.973 20.4227 179.973 20.3564V20.2592H180ZM161.186 18.4202L161.217 18.3141C161.645 16.7617 162.573 15.3922 163.858 14.4163C165.143 13.4403 166.713 12.9117 168.329 12.9117C169.944 12.9117 171.515 13.4403 172.8 14.4163C174.085 15.3922 175.012 16.7617 175.441 18.3141L175.472 18.4202H161.186Z" fill="#727171"/>
</g>
<defs>
<clipPath id="clip0_559:22078">
<rect width="180" height="32" fill="white"/>
</clipPath>
</defs>
</svg>
